<svg xmlns="http://www.w3.org/2000/svg" xmlns:xlink="http://www.w3.org/1999/xlink" width="500" zoomAndPan="magnify" viewBox="0 0 375 374.999991" height="500" preserveAspectRatio="xMidYMid meet" version="1.0"><defs><g/><clipPath id="f61b7cded9"><path d="M 11.457031 11.457031 L 363.542969 11.457031 L 363.542969 363.542969 L 11.457031 363.542969 Z M 11.457031 11.457031 " clip-rule="nonzero"/></clipPath><clipPath id="8f2b8f0551"><path d="M 63.957031 11.457031 L 311.042969 11.457031 C 340.035156 11.457031 363.542969 34.964844 363.542969 63.957031 L 363.542969 311.042969 C 363.542969 340.035156 340.035156 363.542969 311.042969 363.542969 L 63.957031 363.542969 C 34.964844 363.542969 11.457031 340.035156 11.457031 311.042969 L 11.457031 63.957031 C 11.457031 34.964844 34.964844 11.457031 63.957031 11.457031 Z M 63.957031 11.457031 " clip-rule="nonzero"/></clipPath></defs><g clip-path="url(#f61b7cded9)"><g clip-path="url(#8f2b8f0551)"><path fill="#09090a" d="M 11.457031 11.457031 L 363.542969 11.457031 L 363.542969 363.542969 L 11.457031 363.542969 Z M 11.457031 11.457031 " fill-opacity="1" fill-rule="nonzero"/></g></g><g fill="#ffffff" fill-opacity="1"><g transform="translate(48.257289, 239.624984)"><g><path d="M 151.703125 -20.390625 L 151.875 -26.09375 C 151.988281 -29.675781 152.320312 -33.59375 152.875 -37.84375 L 154.21875 -47.75 C 154.5 -50.09375 154.78125 -52.21875 155.0625 -54.125 C 149.75 -48.300781 145.46875 -43.769531 142.21875 -40.53125 L 132.578125 -31.125 C 110.984375 -10.9375 98.117188 -0.84375 93.984375 -0.84375 C 87.878906 -0.84375 81.472656 -2.15625 74.765625 -4.78125 C 71.128906 -6.238281 69.054688 -7.75 68.546875 -9.3125 C 67.765625 -11.269531 67.375 -13.941406 67.375 -17.328125 C 67.375 -20.710938 67.484375 -23.832031 67.703125 -26.6875 C 67.929688 -29.539062 68.210938 -32.378906 68.546875 -35.203125 C 68.890625 -38.023438 69.238281 -40.734375 69.59375 -43.328125 C 69.957031 -45.929688 70.253906 -48.210938 70.484375 -50.171875 C 71.046875 -54.597656 71.15625 -56.8125 70.8125 -56.8125 L 39.609375 -18.453125 C 24.890625 -1.171875 16.523438 8.390625 14.515625 10.234375 C 10.210938 14.148438 5.457031 16.109375 0.25 16.109375 C -2.320312 16.109375 -4.445312 15.460938 -6.125 14.171875 C -7.800781 12.890625 -8.640625 11.296875 -8.640625 9.390625 C -8.640625 5.585938 -7.046875 1.617188 -3.859375 -2.515625 L 70.65625 -97.25 L 79.375 -107.734375 C 89.78125 -119.984375 96.601562 -126.109375 99.84375 -126.109375 C 104.375 -126.109375 108.679688 -124.960938 112.765625 -122.671875 C 116.398438 -120.660156 118.472656 -118.703125 118.984375 -116.796875 C 119.203125 -116.066406 118.726562 -112.679688 117.5625 -106.640625 L 114.625 -90.78125 C 111.320312 -73.113281 109.671875 -61.71875 109.671875 -56.59375 C 109.671875 -51.476562 110.257812 -48.921875 111.4375 -48.921875 C 115.238281 -48.921875 122.5625 -55.15625 133.40625 -67.625 L 160.59375 -100.1875 C 166.582031 -107.0625 170.554688 -110.976562 172.515625 -111.9375 C 173.078125 -112.21875 173.890625 -112.359375 174.953125 -112.359375 C 176.015625 -112.359375 177.203125 -112.21875 178.515625 -111.9375 C 179.828125 -111.65625 181.164062 -111.289062 182.53125 -110.84375 C 183.90625 -110.394531 185.234375 -109.863281 186.515625 -109.25 C 187.804688 -108.632812 188.957031 -107.988281 189.96875 -107.3125 C 192.144531 -105.863281 193.21875 -104.675781 193.1875 -103.75 C 193.164062 -102.832031 192.929688 -100.847656 192.484375 -97.796875 C 192.035156 -94.742188 191.476562 -91.035156 190.8125 -86.671875 C 186.164062 -57.753906 183.742188 -40.972656 183.546875 -36.328125 C 183.347656 -31.691406 183.820312 -28.785156 184.96875 -27.609375 C 186.125 -26.429688 187.816406 -25.84375 190.046875 -25.84375 C 194.128906 -25.84375 200.0625 -28.273438 207.84375 -33.140625 C 213.101562 -36.441406 217.453125 -38.09375 220.890625 -38.09375 C 224.328125 -38.09375 226.046875 -36.441406 226.046875 -33.140625 C 226.046875 -29.734375 224.203125 -25.59375 220.515625 -20.71875 C 215.203125 -13.675781 207.257812 -7.300781 196.6875 -1.59375 C 187.789062 3.15625 179.34375 5.53125 171.34375 5.53125 C 158.25 5.53125 151.703125 -3.109375 151.703125 -20.390625 Z M 151.703125 -20.390625 "/></g></g></g><g fill="#0099ff" fill-opacity="1"><g transform="translate(278.23525, 238.622191)"><g><path d="M 10.328125 -15.375 C 10.328125 -5.703125 18.453125 2.421875 28.109375 2.421875 C 37.765625 2.421875 45.890625 -5.703125 45.890625 -15.375 C 45.890625 -25.03125 37.765625 -33.15625 28.109375 -33.15625 C 18.453125 -33.15625 10.328125 -25.03125 10.328125 -15.375 Z M 10.328125 -15.375 "/></g></g></g></svg>