<svg xmlns="http://www.w3.org/2000/svg" xmlns:xlink="http://www.w3.org/1999/xlink" width="500" zoomAndPan="magnify" viewBox="0 0 375 374.999991" height="500" preserveAspectRatio="xMidYMid meet" version="1.0"><defs><g/><clipPath id="4e927900c0"><path d="M 45 0 L 330 0 C 354.851562 0 375 20.148438 375 45 L 375 330 C 375 354.851562 354.851562 375 330 375 L 45 375 C 20.148438 375 0 354.851562 0 330 L 0 45 C 0 20.148438 20.148438 0 45 0 Z M 45 0 " clip-rule="nonzero"/></clipPath></defs><g clip-path="url(#4e927900c0)"><rect x="-37.5" width="450" fill="#0c0c0d" y="-37.499999" height="449.999989" fill-opacity="1"/></g><g fill="#ffffff" fill-opacity="1"><g transform="translate(104.475411, 269.744954)"><g><path d="M 169.359375 -28.21875 C 168.515625 -36.25 166.578125 -44.28125 164.921875 -52.296875 C 162.984375 -61.4375 161.328125 -70.28125 159.671875 -79.421875 C 158.84375 -83.296875 158 -87.4375 156.90625 -91.59375 C 156.34375 -96.296875 155.515625 -101.28125 154.6875 -105.984375 C 152.46875 -118.4375 150.265625 -130.890625 147.21875 -143.34375 C 144.453125 -154.6875 139.75 -165.75 131.171875 -174.328125 C 127.84375 -177.9375 121.75 -177.9375 117.875 -174.890625 C 114.5625 -176.828125 110.40625 -177.375 105.703125 -176 C 102.65625 -175.4375 99.625 -172.671875 99.0625 -169.90625 C 95.75 -145.828125 89.65625 -122.03125 84.40625 -98.234375 C 80.796875 -82.734375 77.484375 -67.25 73.890625 -51.75 C 67.515625 -79.6875 61.4375 -112.078125 56.734375 -140.578125 C 55.625 -147.484375 54.234375 -154.40625 53.6875 -161.046875 C 53.40625 -163.8125 52.296875 -166.578125 50.640625 -168.515625 C 48.703125 -173.5 44.546875 -177.09375 39.296875 -178.203125 C 34.859375 -179.59375 29.890625 -179.03125 25.453125 -176.265625 C 22.140625 -174.328125 20.75 -171.5625 20.75 -168.796875 C 18.265625 -163.546875 18.546875 -157.453125 18.8125 -151.921875 C 18.8125 -145.28125 19.09375 -138.90625 19.09375 -132.265625 L 19.09375 -125.90625 C 18.546875 -125.90625 18.265625 -132 17.703125 -132 C 17.4375 -143.890625 17.15625 -156.625 15.5 -167.6875 C 15.21875 -169.078125 12.453125 -169.078125 12.171875 -167.6875 C 9.125 -151.921875 10.234375 -135.3125 10.515625 -119.546875 C 10.515625 -103.21875 10.796875 -86.609375 11.34375 -70.28125 C 11.625 -54.234375 12.734375 -38.734375 14.9375 -22.6875 C 15.765625 -16.046875 16.328125 -7.75 21.3125 -2.765625 C 23.796875 -0.28125 27.671875 0.28125 31 -0.828125 C 31.265625 -0.28125 31.546875 0 31.828125 0.28125 C 32.921875 1.65625 34.859375 1.65625 36.53125 0.828125 C 45.375 -3.046875 44.546875 -13.28125 44.28125 -21.3125 C 43.71875 -44.546875 42.890625 -68.90625 41.78125 -92.140625 C 42.34375 -89.65625 43.171875 -87.4375 44 -85.234375 C 46.21875 -76.09375 48.703125 -66.6875 51.1875 -57.5625 L 63.09375 -15.21875 C 64.203125 -10.796875 65.3125 -6.640625 67.796875 -2.765625 C 68.34375 -1.65625 69.453125 -1.390625 70.28125 -1.9375 C 71.390625 -1.109375 72.78125 -0.828125 74.15625 -0.828125 C 74.984375 -0.28125 76.375 -0.28125 77.765625 -0.546875 C 82.1875 -1.65625 83.84375 -4.703125 85.234375 -8.578125 C 86.0625 -11.34375 86.609375 -13.84375 87.171875 -16.609375 C 87.171875 -16.046875 88 -15.765625 88.265625 -16.875 C 90.484375 -28.5 94.359375 -45.65625 97.953125 -60.875 C 101.828125 -76.375 108.75 -100.453125 115.390625 -119.8125 C 117.875 -108.203125 120.375 -96.578125 123.140625 -84.953125 C 129.234375 -60.875 132.265625 -38.734375 132.828125 -14.390625 C 132.828125 -7.75 137.8125 -2.21875 144.171875 -0.828125 C 151.09375 6.09375 161.328125 1.65625 165.484375 -5.53125 C 169.359375 -12.453125 169.90625 -20.484375 169.359375 -28.21875 Z M 54.515625 -103.5 C 54.515625 -104.046875 54.234375 -104.59375 53.953125 -104.875 C 50.359375 -122.03125 46.484375 -138.640625 42.34375 -155.515625 C 42.609375 -156.0625 42.609375 -156.34375 42.609375 -156.625 C 44 -156.90625 45.375 -157.453125 46.484375 -158.28125 C 47.59375 -153.859375 48.15625 -149.703125 48.703125 -145.546875 C 51.1875 -131.4375 54.796875 -111.234375 57.5625 -97.125 C 55.890625 -98.78125 55.625 -100.71875 54.515625 -103.5 Z M 96.578125 -61.4375 L 96.296875 -61.4375 C 96.015625 -61.4375 95.75 -61.4375 95.46875 -61.703125 C 96.296875 -65.859375 97.125 -70.015625 97.6875 -74.15625 C 102.109375 -92.984375 107.09375 -111.515625 113.171875 -129.78125 C 113.734375 -127.84375 114.015625 -125.90625 114.5625 -124.25 C 107.640625 -103.5 101.5625 -82.46875 96.578125 -61.4375 Z M 96.578125 -61.4375 "/></g></g></g></svg>