<svg xmlns="http://www.w3.org/2000/svg" xmlns:xlink="http://www.w3.org/1999/xlink" width="500" zoomAndPan="magnify" viewBox="0 0 375 225" height="300" preserveAspectRatio="xMidYMid meet" version="1.0"><defs><g/></defs><g fill="#ffffff" fill-opacity="1"><g transform="translate(18.988776, 177.375003)"><g><path d="M 185.015625 -24.859375 L 185.21875 -31.828125 C 185.351562 -36.191406 185.765625 -40.96875 186.453125 -46.15625 L 188.09375 -58.234375 C 188.425781 -61.097656 188.765625 -63.6875 189.109375 -66 C 182.628906 -58.90625 177.410156 -53.378906 173.453125 -49.421875 L 161.6875 -37.96875 C 135.351562 -13.332031 119.660156 -1.015625 114.609375 -1.015625 C 107.171875 -1.015625 99.359375 -2.617188 91.171875 -5.828125 C 86.742188 -7.609375 84.222656 -9.453125 83.609375 -11.359375 C 82.648438 -13.742188 82.171875 -17 82.171875 -21.125 C 82.171875 -25.257812 82.304688 -29.066406 82.578125 -32.546875 C 82.847656 -36.023438 83.1875 -39.484375 83.59375 -42.921875 C 84.007812 -46.367188 84.4375 -49.675781 84.875 -52.84375 C 85.320312 -56.019531 85.679688 -58.800781 85.953125 -61.1875 C 86.640625 -66.582031 86.78125 -69.28125 86.375 -69.28125 L 48.296875 -22.515625 C 30.359375 -1.429688 20.160156 10.234375 17.703125 12.484375 C 12.453125 17.253906 6.65625 19.640625 0.3125 19.640625 C -2.832031 19.640625 -5.425781 18.851562 -7.46875 17.28125 C -9.519531 15.71875 -10.546875 13.78125 -10.546875 11.46875 C -10.546875 6.820312 -8.597656 1.976562 -4.703125 -3.0625 L 86.171875 -118.609375 L 96.8125 -131.390625 C 109.5 -146.335938 117.820312 -153.8125 121.78125 -153.8125 C 127.300781 -153.8125 132.550781 -152.410156 137.53125 -149.609375 C 141.96875 -147.148438 144.492188 -144.765625 145.109375 -142.453125 C 145.378906 -141.566406 144.800781 -137.4375 143.375 -130.0625 L 139.78125 -110.71875 C 135.757812 -89.164062 133.75 -75.265625 133.75 -69.015625 C 133.75 -62.773438 134.460938 -59.65625 135.890625 -59.65625 C 140.535156 -59.65625 149.472656 -67.265625 162.703125 -82.484375 L 195.859375 -122.1875 C 203.160156 -130.570312 208.003906 -135.347656 210.390625 -136.515625 C 211.078125 -136.859375 212.066406 -137.03125 213.359375 -137.03125 C 214.660156 -137.03125 216.113281 -136.859375 217.71875 -136.515625 C 219.320312 -136.171875 220.957031 -135.722656 222.625 -135.171875 C 224.289062 -134.628906 225.910156 -133.984375 227.484375 -133.234375 C 229.054688 -132.484375 230.457031 -131.703125 231.6875 -130.890625 C 234.34375 -129.109375 235.65625 -127.65625 235.625 -126.53125 C 235.59375 -125.40625 235.300781 -122.984375 234.75 -119.265625 C 234.207031 -115.546875 233.523438 -111.023438 232.703125 -105.703125 C 227.046875 -70.429688 224.097656 -49.960938 223.859375 -44.296875 C 223.617188 -38.640625 224.195312 -35.09375 225.59375 -33.65625 C 226.988281 -32.226562 229.050781 -31.515625 231.78125 -31.515625 C 236.757812 -31.515625 243.992188 -34.484375 253.484375 -40.421875 C 259.890625 -44.441406 265.191406 -46.453125 269.390625 -46.453125 C 273.585938 -46.453125 275.6875 -44.441406 275.6875 -40.421875 C 275.6875 -36.253906 273.4375 -31.207031 268.9375 -25.28125 C 262.445312 -16.675781 252.757812 -8.894531 239.875 -1.9375 C 229.019531 3.851562 218.71875 6.75 208.96875 6.75 C 193 6.75 185.015625 -3.785156 185.015625 -24.859375 Z M 185.015625 -24.859375 "/></g></g></g><g fill="#0099ff" fill-opacity="1"><g transform="translate(300.054158, 176.962148)"><g><path d="M 11.125 -16.5625 C 11.125 -6.15625 19.875 2.609375 30.28125 2.609375 C 40.6875 2.609375 49.4375 -6.15625 49.4375 -16.5625 C 49.4375 -26.96875 40.6875 -35.71875 30.28125 -35.71875 C 19.875 -35.71875 11.125 -26.96875 11.125 -16.5625 Z M 11.125 -16.5625 "/></g></g></g></svg>